<svg xmlns="http://www.w3.org/2000/svg" xmlns:xlink="http://www.w3.org/1999/xlink" viewBox="0 0 283.47 199.7"><defs><style>.cls-1{isolation:isolate;}.cls-2{fill:#1a1a18;}.cls-3{fill:url(#linear-gradient);}.cls-4{fill:url(#linear-gradient-2);}.cls-5{fill:url(#linear-gradient-3);}.cls-6{fill:url(#linear-gradient-4);}.cls-7{fill:url(#linear-gradient-5);}.cls-8{fill:url(#radial-gradient);}.cls-10,.cls-11,.cls-9{opacity:0.85;}.cls-10,.cls-11,.cls-17,.cls-18,.cls-9{mix-blend-mode:multiply;}.cls-9{fill:url(#radial-gradient-2);}.cls-10{fill:url(#radial-gradient-3);}.cls-11{fill:url(#radial-gradient-4);}.cls-12{fill:url(#linear-gradient-6);}.cls-13{fill:#8b8b8b;}.cls-14{fill:url(#linear-gradient-7);}.cls-15{fill:url(#linear-gradient-8);}.cls-16{fill:url(#linear-gradient-9);}.cls-17{fill:url(#linear-gradient-10);}.cls-18{fill:url(#linear-gradient-11);}.cls-19{fill:url(#linear-gradient-12);}.cls-20{fill:url(#linear-gradient-13);}.cls-21{fill:url(#linear-gradient-14);}.cls-22{fill:url(#linear-gradient-15);}.cls-23{fill:url(#linear-gradient-16);}.cls-24{fill:url(#linear-gradient-17);}.cls-25{fill:url(#linear-gradient-18);}.cls-26{fill:url(#linear-gradient-19);}.cls-27{fill:url(#linear-gradient-20);}.cls-28{fill:url(#linear-gradient-21);}.cls-29{fill:url(#linear-gradient-22);}.cls-30{fill:url(#linear-gradient-23);}.cls-31{fill:#002252;}</style><linearGradient id="linear-gradient" x1="198.22" y1="19.17" x2="155.83" y2="84.1" gradientUnits="userSpaceOnUse"><stop offset="0.2" stop-color="#d9dada"/><stop offset="0.22" stop-color="#c9c9c9"/><stop offset="0.25" stop-color="#a0a0a0"/><stop offset="0.28" stop-color="gray"/><stop offset="0.31" stop-color="#696969"/><stop offset="0.34" stop-color="#5c5b5b"/><stop offset="0.37" stop-color="#575656"/><stop offset="0.44" stop-color="#5d5c5c"/><stop offset="0.54" stop-color="#6d6c6d"/><stop offset="0.66" stop-color="#888"/><stop offset="0.78" stop-color="#adaeae"/><stop offset="0.81" stop-color="#b9babb"/><stop offset="1" stop-color="#1a1a18"/></linearGradient><linearGradient id="linear-gradient-2" x1="79.15" y1="66.3" x2="86.83" y2="48.71" gradientUnits="userSpaceOnUse"><stop offset="0.03" stop-color="#bbbcbd"/><stop offset="0.2" stop-color="#bbbcbd"/><stop offset="0.99" stop-color="#6f6f6e"/></linearGradient><linearGradient id="linear-gradient-3" x1="184.04" y1="24.04" x2="174.58" y2="23.15" gradientUnits="userSpaceOnUse"><stop offset="0.2" stop-color="#575656"/><stop offset="0.26" stop-color="#595858"/><stop offset="0.29" stop-color="#605f5f"/><stop offset="0.3" stop-color="#6b6a6a"/><stop offset="0.32" stop-color="#7c7b7b"/><stop offset="0.33" stop-color="#929191"/><stop offset="0.34" stop-color="#adadad"/><stop offset="0.35" stop-color="#cdcdcd"/><stop offset="0.36" stop-color="#f1f1f1"/><stop offset="0.36" stop-color="#fff"/><stop offset="0.82" stop-color="#575656"/><stop offset="1" stop-color="#3b3b3a"/></linearGradient><linearGradient id="linear-gradient-4" x1="98.9" y1="75.59" x2="106.69" y2="57.76" gradientUnits="userSpaceOnUse"><stop offset="0" stop-color="#d9dada"/><stop offset="0.09" stop-color="#cecfcf"/><stop offset="0.24" stop-color="#c0c1c2"/><stop offset="0.37" stop-color="#bbbcbd"/><stop offset="0.99" stop-color="#1a1a18"/></linearGradient><linearGradient id="linear-gradient-5" x1="174.64" y1="159.65" x2="35.56" y2="18.16" gradientUnits="userSpaceOnUse"><stop offset="0.08" stop-color="#9c9d9d"/><stop offset="0.12" stop-color="#a7a7a8"/><stop offset="0.17" stop-color="#878786"/><stop offset="0.31" stop-color="#9c9d9d"/><stop offset="0.47" stop-color="#f6f6f6"/><stop offset="0.7" stop-color="#f6f6f6"/><stop offset="0.73" stop-color="#e7e7e7"/><stop offset="0.78" stop-color="#bfbfbf"/><stop offset="0.84" stop-color="#8b8b8b"/><stop offset="0.96" stop-color="#575656"/></linearGradient><radialGradient id="radial-gradient" cx="114.46" cy="36.62" r="31.72" gradientUnits="userSpaceOnUse"><stop offset="0.04" stop-color="#fff"/><stop offset="0.47" stop-color="#fff"/><stop offset="0.53" stop-color="#fbfbfb"/><stop offset="0.59" stop-color="#eeeeef"/><stop offset="0.65" stop-color="#dadada"/><stop offset="0.71" stop-color="#bdbdbe"/><stop offset="0.75" stop-color="#a7a7a8"/><stop offset="0.85" stop-color="#878786"/><stop offset="1" stop-color="#575656"/></radialGradient><radialGradient id="radial-gradient-2" cx="121.58" cy="42.76" r="11.19" gradientTransform="translate(0 -10.98) scale(1 0.96)" gradientUnits="userSpaceOnUse"><stop offset="0.04" stop-color="#fff"/><stop offset="0.23" stop-color="#fff"/><stop offset="0.3" stop-color="#f6f6f6"/><stop offset="0.42" stop-color="#dddddc"/><stop offset="0.56" stop-color="#b4b4b3"/><stop offset="0.74" stop-color="#7b7b7a"/><stop offset="0.94" stop-color="#333331"/><stop offset="1" stop-color="#1a1a18"/></radialGradient><radialGradient id="radial-gradient-3" cx="114.58" cy="12.64" r="13.17" gradientUnits="userSpaceOnUse"><stop offset="0.23" stop-color="#fff"/><stop offset="0.57" stop-color="#f7f8f8"/><stop offset="0.86" stop-color="#1a1a18"/></radialGradient><radialGradient id="radial-gradient-4" cx="136.64" cy="38.34" r="44.36" gradientUnits="userSpaceOnUse"><stop offset="0.04" stop-color="#fff"/><stop offset="0.25" stop-color="#fff"/><stop offset="0.27" stop-color="#fbfbfb"/><stop offset="0.29" stop-color="#eeefef"/><stop offset="0.32" stop-color="#dadadb"/><stop offset="0.34" stop-color="#bdbebf"/><stop offset="0.35" stop-color="#b1b2b3"/><stop offset="0.41" stop-color="#878786"/><stop offset="0.47" stop-color="#575656"/><stop offset="0.86" stop-color="#575656"/></radialGradient><linearGradient id="linear-gradient-6" x1="105.65" y1="63.58" x2="83.94" y2="69" gradientUnits="userSpaceOnUse"><stop offset="0" stop-color="#f6f6f6"/><stop offset="0.03" stop-color="#f0f0f0"/><stop offset="0.26" stop-color="#c5c6c6"/><stop offset="0.27" stop-color="#cacaca"/><stop offset="0.33" stop-color="#dddede"/><stop offset="0.41" stop-color="#ebecec"/><stop offset="0.49" stop-color="#f4f4f4"/><stop offset="0.65" stop-color="#f6f6f6"/><stop offset="0.9" stop-color="#fff"/></linearGradient><linearGradient id="linear-gradient-7" x1="945.94" y1="324.64" x2="1172.91" y2="601.18" gradientTransform="translate(-310.02 -133.31) scale(0.44)" gradientUnits="userSpaceOnUse"><stop offset="0" stop-color="#fff"/><stop offset="0.07" stop-color="#e7e7e7"/><stop offset="0.16" stop-color="#fff"/><stop offset="0.2" stop-color="#fff"/><stop offset="0.26" stop-color="#ebebeb"/><stop offset="0.33" stop-color="#d9dada"/><stop offset="0.35" stop-color="#e6e6e6"/><stop offset="0.39" stop-color="#f4f4f4"/><stop offset="0.43" stop-color="#fcfdfd"/><stop offset="0.5" stop-color="#fff"/><stop offset="0.89" stop-color="#fff"/><stop offset="0.98" stop-color="#c3c4c4"/></linearGradient><linearGradient id="linear-gradient-8" x1="79.34" y1="32.5" x2="181.01" y2="129.06" gradientUnits="userSpaceOnUse"><stop offset="0" stop-color="#e3e3e3"/><stop offset="0.12" stop-color="#b4b3b3"/><stop offset="0.24" stop-color="#8c8b8b"/><stop offset="0.35" stop-color="#6f6e6e"/><stop offset="0.44" stop-color="#5d5c5c"/><stop offset="0.51" stop-color="#575656"/><stop offset="0.58" stop-color="#5c5b5b"/><stop offset="0.66" stop-color="#6a6969"/><stop offset="0.76" stop-color="#828181"/><stop offset="0.85" stop-color="#a3a3a3"/><stop offset="0.95" stop-color="#cdcdcd"/><stop offset="1" stop-color="#e3e3e3"/></linearGradient><linearGradient id="linear-gradient-9" x1="128.34" y1="79.23" x2="88.72" y2="138.46" gradientUnits="userSpaceOnUse"><stop offset="0" stop-color="#cfd0d0"/><stop offset="0.1" stop-color="#fff"/><stop offset="0.35" stop-color="#f2f2f2"/><stop offset="0.39" stop-color="#f6f6f6"/><stop offset="0.54" stop-color="#fff"/><stop offset="0.57" stop-color="#d2d2d2"/><stop offset="0.6" stop-color="#9d9d9c"/><stop offset="0.64" stop-color="#727272"/><stop offset="0.67" stop-color="#545453"/><stop offset="0.7" stop-color="#424241"/><stop offset="0.71" stop-color="#3b3b3a"/><stop offset="0.73" stop-color="#6d6d6c"/><stop offset="0.75" stop-color="#999"/><stop offset="0.77" stop-color="#bebebe"/><stop offset="0.79" stop-color="#dadada"/><stop offset="0.81" stop-color="#efefef"/><stop offset="0.82" stop-color="#fbfbfb"/><stop offset="0.84" stop-color="#fff"/><stop offset="0.85" stop-color="#fafafa"/><stop offset="0.86" stop-color="#ededed"/><stop offset="0.87" stop-color="#d7d7d6"/><stop offset="0.88" stop-color="#b7b7b7"/><stop offset="0.9" stop-color="#8f8f8e"/><stop offset="0.91" stop-color="#5e5e5d"/><stop offset="0.91" stop-color="#595958"/><stop offset="0.95" stop-color="#595958"/><stop offset="1" stop-color="#919292"/></linearGradient><linearGradient id="linear-gradient-10" x1="123.92" y1="110.08" x2="134.37" y2="116.24" gradientUnits="userSpaceOnUse"><stop offset="0.2" stop-color="#fff"/><stop offset="0.33" stop-color="#fdfdfd"/><stop offset="0.41" stop-color="#f4f4f4"/><stop offset="0.47" stop-color="#e6e7e7"/><stop offset="0.52" stop-color="#d5d6d6"/><stop offset="0.84" stop-color="#575656"/><stop offset="0.93" stop-color="#484847"/><stop offset="1" stop-color="#3b3b3a"/></linearGradient><linearGradient id="linear-gradient-11" x1="129.78" y1="81.76" x2="140.78" y2="68.59" gradientUnits="userSpaceOnUse"><stop offset="0.02" stop-color="#fff"/><stop offset="0.18" stop-color="#fff"/><stop offset="0.21" stop-color="#fff"/><stop offset="0.33" stop-color="#f7f7f7"/><stop offset="0.5" stop-color="#e3e3e3"/><stop offset="0.52" stop-color="#e0e0e0"/><stop offset="0.8" stop-color="#b7b7b8"/><stop offset="0.95" stop-color="#a7a7a8"/><stop offset="1" stop-color="#a0a1a1"/></linearGradient><linearGradient id="linear-gradient-12" x1="154.07" y1="8.26" x2="168.39" y2="22.92" gradientUnits="userSpaceOnUse"><stop offset="0" stop-color="#1a1a18"/><stop offset="0.04" stop-color="#1c1c1a"/><stop offset="0.07" stop-color="#252523"/><stop offset="0.09" stop-color="#323231"/><stop offset="0.11" stop-color="#464644"/><stop offset="0.13" stop-color="#60605e"/><stop offset="0.14" stop-color="#7f7f7e"/><stop offset="0.16" stop-color="#a4a4a4"/><stop offset="0.17" stop-color="#cecece"/><stop offset="0.18" stop-color="#f6f6f6"/><stop offset="0.22" stop-color="#d3d3d3"/><stop offset="0.28" stop-color="#a9a9a9"/><stop offset="0.34" stop-color="#878786"/><stop offset="0.4" stop-color="#6c6c6b"/><stop offset="0.46" stop-color="#585857"/><stop offset="0.52" stop-color="#4d4d4c"/><stop offset="0.58" stop-color="#494948"/><stop offset="0.69" stop-color="#424241"/><stop offset="0.86" stop-color="#2f2f2d"/><stop offset="1" stop-color="#1a1a18"/></linearGradient><linearGradient id="linear-gradient-13" x1="155.78" y1="69.17" x2="172.09" y2="58.46" xlink:href="#linear-gradient-12"/><linearGradient id="linear-gradient-14" x1="168.87" y1="17.12" x2="190.28" y2="17.12" gradientUnits="userSpaceOnUse"><stop offset="0" stop-color="#6f6f6e"/><stop offset="0.29" stop-color="#d9dada"/><stop offset="0.33" stop-color="#b8b8b8"/><stop offset="0.39" stop-color="#989998"/><stop offset="0.44" stop-color="#818281"/><stop offset="0.49" stop-color="#747473"/><stop offset="0.53" stop-color="#6f6f6e"/><stop offset="0.76" stop-color="#3b3b3a"/><stop offset="1" stop-color="#1a1a18"/></linearGradient><linearGradient id="linear-gradient-15" x1="81.48" y1="128.46" x2="130.85" y2="128.46" gradientUnits="userSpaceOnUse"><stop offset="0" stop-color="#1a1a18"/><stop offset="0.05" stop-color="#1c1c1a"/><stop offset="0.08" stop-color="#242423"/><stop offset="0.1" stop-color="#323231"/><stop offset="0.12" stop-color="#464644"/><stop offset="0.14" stop-color="#5f5f5e"/><stop offset="0.16" stop-color="#7e7e7e"/><stop offset="0.18" stop-color="#a2a3a3"/><stop offset="0.18" stop-color="#a9aaaa"/><stop offset="0.18" stop-color="#a8a9a9"/><stop offset="0.26" stop-color="#868686"/><stop offset="0.34" stop-color="#6b6b6b"/><stop offset="0.42" stop-color="#585857"/><stop offset="0.5" stop-color="#4d4d4c"/><stop offset="0.58" stop-color="#494948"/><stop offset="0.69" stop-color="#424241"/><stop offset="0.86" stop-color="#2f2f2d"/><stop offset="1" stop-color="#1a1a18"/></linearGradient><linearGradient id="linear-gradient-16" x1="144.3" y1="109.51" x2="166.38" y2="109.51" xlink:href="#linear-gradient-15"/><linearGradient id="linear-gradient-17" x1="159.08" y1="112.48" x2="199.64" y2="112.48" xlink:href="#linear-gradient-15"/><linearGradient id="linear-gradient-18" x1="79.31" y1="72.87" x2="121.59" y2="72.87" gradientUnits="userSpaceOnUse"><stop offset="0" stop-color="#878786"/><stop offset="0.06" stop-color="#898988"/><stop offset="0.09" stop-color="#919191"/><stop offset="0.12" stop-color="#9f9f9f"/><stop offset="0.15" stop-color="#b2b3b2"/><stop offset="0.17" stop-color="#cbcccc"/><stop offset="0.18" stop-color="#d9dada"/><stop offset="0.19" stop-color="#d5d6d6"/><stop offset="0.3" stop-color="#a4a5a4"/><stop offset="0.41" stop-color="#797a79"/><stop offset="0.53" stop-color="#575756"/><stop offset="0.64" stop-color="#3c3c3b"/><stop offset="0.76" stop-color="#292927"/><stop offset="0.88" stop-color="#1e1e1c"/><stop offset="1" stop-color="#1a1a18"/></linearGradient><linearGradient id="linear-gradient-19" x1="80.24" y1="47.14" x2="95.29" y2="47.14" gradientUnits="userSpaceOnUse"><stop offset="0" stop-color="#494948"/><stop offset="0.05" stop-color="#4b4b4a"/><stop offset="0.08" stop-color="#535453"/><stop offset="0.1" stop-color="#616161"/><stop offset="0.12" stop-color="#757574"/><stop offset="0.14" stop-color="#8e8f8e"/><stop offset="0.16" stop-color="#adaeae"/><stop offset="0.18" stop-color="#d2d3d3"/><stop offset="0.18" stop-color="#d9dada"/><stop offset="0.19" stop-color="#d5d6d6"/><stop offset="0.3" stop-color="#a4a5a4"/><stop offset="0.41" stop-color="#797a79"/><stop offset="0.53" stop-color="#575756"/><stop offset="0.64" stop-color="#3c3c3b"/><stop offset="0.76" stop-color="#292927"/><stop offset="0.88" stop-color="#1e1e1c"/><stop offset="1" stop-color="#1a1a18"/></linearGradient><linearGradient id="linear-gradient-20" x1="67.39" y1="69.08" x2="77.29" y2="69.08" gradientUnits="userSpaceOnUse"><stop offset="0" stop-color="#878786"/><stop offset="0.07" stop-color="#898988"/><stop offset="0.1" stop-color="#919191"/><stop offset="0.13" stop-color="#9f9f9f"/><stop offset="0.16" stop-color="#b2b3b2"/><stop offset="0.18" stop-color="#c5c6c6"/><stop offset="0.28" stop-color="#a8a9a9"/><stop offset="0.42" stop-color="#868686"/><stop offset="0.56" stop-color="#6b6b6b"/><stop offset="0.7" stop-color="#585857"/><stop offset="0.85" stop-color="#4d4d4c"/><stop offset="1" stop-color="#494948"/></linearGradient><linearGradient id="linear-gradient-21" x1="119.46" y1="7.7" x2="120.55" y2="10.09" gradientUnits="userSpaceOnUse"><stop offset="0" stop-color="#fff"/><stop offset="0.12" stop-color="#f0f0f0"/><stop offset="0.91" stop-color="#636362"/></linearGradient><linearGradient id="linear-gradient-22" x1="105.85" y1="32.33" x2="145.86" y2="32.33" gradientUnits="userSpaceOnUse"><stop offset="0.69" stop-color="#fff"/><stop offset="0.72" stop-color="#fafafa"/><stop offset="0.76" stop-color="#eaeaea"/><stop offset="0.8" stop-color="#d1d1d1"/><stop offset="0.84" stop-color="#aeaead"/><stop offset="0.89" stop-color="#81817f"/><stop offset="0.94" stop-color="#4a4a49"/><stop offset="0.98" stop-color="#1a1a18"/></linearGradient><linearGradient id="linear-gradient-23" x1="103.23" y1="131.36" x2="118.06" y2="78.91" gradientUnits="userSpaceOnUse"><stop offset="0" stop-color="#ececed"/><stop offset="0.07" stop-color="#636362"/><stop offset="0.25" stop-color="#8c8c8c"/><stop offset="0.35" stop-color="#9c9d9d"/><stop offset="0.47" stop-color="#aeafb0"/><stop offset="0.6" stop-color="#bfc0c1"/><stop offset="0.7" stop-color="#a9a9aa"/><stop offset="0.87" stop-color="#888887"/><stop offset="0.96" stop-color="#7b7b7a"/><stop offset="1" stop-color="#bbbcbd"/></linearGradient></defs><title>Asset 1</title><g class="cls-1"><g id="Layer_2" data-name="Layer 2"><g id="Calque_1" data-name="Calque 1"><path class="cls-2" d="M200.51,131.29c-2.62-7.84-13.22-27.5-21.54-38.57-1.8-2.41-1.13-3.65-.16-4.43a69.75,69.75,0,0,0,7.72-7.65c3.7-4.23,4.59-9,2-15.94s-11.21-23.17-13-28.57c-2.08-6.23-2.28-9-1-12.4,1.47-4,3.61-4.16,5.23-4.14A1.72,1.72,0,0,1,181.21,21a23,23,0,0,0,1.85,8.49c2.75,7.24,9.79,12,12,12.93,1.55.67,1.82-.53,1.69-1.11s-2.43-9.55-4.15-16.3c-1.8-7.08-2.71-8.61-4.3-10.11a14,14,0,0,0-9.71-3.59c-7.31.29-10.54,7.35-10.94,8s-.48,1-1.23.48c-2.09-1.46-8.2-6.56-8.76-9.75-.33-1.89-.65-2.16-2.54-2.89C147.79,4.25,141.44,1.73,134.4.49c-2.82-.49-3-.74-6.26-.13A42.09,42.09,0,0,0,114.93,4.9a6.61,6.61,0,0,0-3,2.63,3.12,3.12,0,0,1-1.56,1.28A68.17,68.17,0,0,0,102,12.23c-1.11.64-1.71,1.32-1.15,2.57a36.85,36.85,0,0,0,5.29,8,9.15,9.15,0,0,0,3.24,1.28c.47.12.8.26,1-.1a3.06,3.06,0,0,1,1.19-1.6,13.44,13.44,0,0,1,5.36-1.77,3.22,3.22,0,0,1,2.25.27,7.55,7.55,0,0,1,2.22,3.07c.43,1.33.16,1.83-.59,2.15a23.64,23.64,0,0,1-5.6,1c-2.6.21-3.34-.51-3.52-.67s-.48-.37-.74,0a5.34,5.34,0,0,1-2.11,1.51c-.58.28-.89.89-.34,1.85,1.66,2.86,3.84,6.07,5.86,6.69,1.61.5,2.47,0,4.28-1.32,1.62-1.17,2.67-1.17,3.11-.84s1.47,1.19,1.21,2c-.42,1.43-3.32,4.86-3.87,5.56s-1,1-2,.58C115.72,41.81,94.94,31,92.17,30a22.53,22.53,0,0,0-8-1.58,40.4,40.4,0,0,0-7.64.49c-1.46.27-2.3,1-3.66,2.23-1.88,1.74-3.87,4-4.06,5.82-.13,1.33,1.35,4.05,1.51,4.24a1.18,1.18,0,0,0,1.24.49c.82-.09,2.88-1.16,5.33-.73,2.23.38,2.45,2.13,2.56,3.47a.91.91,0,0,0,.93.74,8.36,8.36,0,0,1,3.87.78,36.11,36.11,0,0,1,6.47,4.63c.49.54.46,1-.47,1.13a91.44,91.44,0,0,0-16,3.05c-2.48.82-5.4,1.93-6.43,3.72a28,28,0,0,0-3.07,7.62c-.42,2.32,2.06,5.19,2.72,5.83.45.43.75.71,1.54.27,1.21-.69,4.14-2.5,6.95-2.66,1.7-.1,2.38,1.5,2.79,2.09s.8.18,2.33-.23c2.7-.73,17.77-.46,23.09-.21,2.44.11,5.82.47,8.31,1.85s7,5.59,7,5.59-6,10-9.16,15.9c-3,5.47-5.13,9.58-6.2,12a17.39,17.39,0,0,0-1.61,7.69,66.9,66.9,0,0,1,.31,7c0,1.42-1.36,1.57-3.24,2-2.58.65-7.73,1.13-11.9,2.15-3.79,1-5.21,1.84-5.89,4.77a79.15,79.15,0,0,0-1.41,10.59c0,1.06-.06,1.58,1.28,1.3.78-.15,3-.47,5.85-.68,3.52-.27,7.33-.22,10.28-.22,5.42,0,21.42.9,22.5,1,1.37.14,1.65,0,1.55-1-.13-1.26-.36-5.28-.41-7.68s-.43-4.85,1.74-7.19,18.46-20.53,19.37-21.47,1.32-1.63,2.53-.52S159.71,115,162.44,117a13.5,13.5,0,0,0,8.37,2.7c2.22,0,2.83,3.9.95,4.27s-4.88,1-6.94,1.44c-3.18.75-4.15,1.78-5.11,3.93-.82,1.8-1.72,10.69-1.75,11.46,0,.55-.05,1.35.82,1.17,3.92-.8,10.13-1,16.78-.81,7.62.23,15,.86,16.07.92s1.23-.09,1.79-1a37.73,37.73,0,0,1,6.34-6.87C201,133.24,201,132.82,200.51,131.29Zm-29.3-53.73a3.79,3.79,0,0,1-4.14-.81c-.94-.9-8.64-10.16-11.11-13-1.25-1.43-2.18-4.68,1.57-6.07,3.08-1.12,8.6-2.89,10.13-3.7s2.34-1.64,2.48-3.21.14-3.35.15-3.94.78-1.07,1.17-.38c.27.5,1.66,3.2,3.34,6.31,2.52,4.68,5.7,10.53,6.73,13.05a5.48,5.48,0,0,1-1,6.08C178.52,74.39,172.63,77.1,171.21,77.56Z"/><path class="cls-3" d="M179.15,12.7h-.07c-6,0-12.09,6.94-10.93,17.31a37.4,37.4,0,0,0,3.57,13.36c.94,2,11.19,21.55,11.66,23.61a6.26,6.26,0,0,1-2.19,6.87,32.83,32.83,0,0,1-9.46,5.81,5.84,5.84,0,0,1-1.82.34c-.64,0-2.22-.22-5.22-3.92l13.25,17.68c-1.69-2.26-2.56-4-2.26-5.46s2.72-3.09,5.49-5.27,5.86-4.9,7.27-8.59a8.9,8.9,0,0,0,.59-3.28c0-3.52-1.71-7.51-3.76-11.84-2.65-5.61-10.16-17.86-12.44-26.45a22.22,22.22,0,0,1-.81-5.68c0-4.87,2.07-8,4.61-9a8.5,8.5,0,0,1,3.2-.65,6.2,6.2,0,0,1,2.76.59,2.07,2.07,0,0,1,.82,1.92v.15c0,.15,0,.51,0,1A22.81,22.81,0,0,0,186,31.91a22.42,22.42,0,0,0,9.84,9.27c.17.07-4.55-17.41-5.39-20.71C189.44,16.63,186.73,12.78,179.15,12.7Z"/><path class="cls-4" d="M96.64,51.54c1.16,1.16-.85,1.09-7,1.62a69.28,69.28,0,0,0-15.76,3c-2.39.9-3.84,1.54-4.8,3.74a37.53,37.53,0,0,0-2.26,6,2.38,2.38,0,0,0,.34,2c.23.37.8-11.28,15.83-12,13.3-.68,16.57-2.08,14-4.62Z"/><path class="cls-5" d="M172.79,27.64a23.77,23.77,0,0,1,.82-4.48c1.34-3.88,3.82-4.68,5.53-4.68a2.57,2.57,0,0,1,2.15.78,2.18,2.18,0,0,1,.67,1.38,21.79,21.79,0,0,0,1.8,8.21c.1.27.21.54.32.8a24.21,24.21,0,0,1-1.6-8.7c0-.55,0-1.19,0-1.2,0-1.31-1.44-1.69-2.74-1.69a7.46,7.46,0,0,0-2.89.6c-2.09.85-4,3.48-4.11,8Z"/><path class="cls-6" d="M97.17,52.05c.45,1.23-1.34.94-7.45,1.47s-12.49,1.74-15.77,3c-2.4.91-3.84,1.54-4.8,3.75a38.31,38.31,0,0,0-2.27,6,2.53,2.53,0,0,0,.5,2c.64,1,1.05,1.22,2,.69.75-.43,4.08-2.32,6.25-2.36a3,3,0,0,1,3.16,2.21c.18.64,1,.31,1.2.27a22.31,22.31,0,0,1,4.83-.71c3.69-.27,18.1-.15,23.39,0,4.75.11,23.48,14.8,23.76,14.88l.94-1.9c-6.36-5.26-30-24-35.72-29.59Z"/><path class="cls-7" d="M151.14,63.66c2.85,3.42,11.34,13.73,18.6,23,11.34,14.51,18.33,25.88,25.69,42.64.74,1.66.18,1.85-1,2.79-2.25,1.83-1.78,2.57-3.46,5.47-.18.33-.62.87-1.15.82-1.55-.12-13.6-1.14-21.52-.86a29,29,0,0,0-7,.75c-.84.2-1.12.12-1.1-1a50.26,50.26,0,0,1,1.58-7.2,4.31,4.31,0,0,1,3.32-2.95c1.57-.44,6-1.27,7.84-1.72s1.9-2.17,1.73-3.47-1.2-3-2.39-3.26a16.91,16.91,0,0,1-4.38-1.27c-1.72-.77-26.33-20.59-28.58-22.42-.57-.47-1-.81-1.2-.6s.29.8.51,1c.42.44,4.13,4.28,5,5.06.59.57.28.85,0,1.14-.44.4-12.09,11.88-16.91,16.89s-8.29,7.92-8.25,11.9.21,7.12.23,7.82-.62.59-1.14.54c-1.5-.13-13.05-1.27-19.54-1.41a55.79,55.79,0,0,0-14.23,1.25c-.72.18-.94-.25-.89-.86a45.21,45.21,0,0,1,1.66-7.8,4.37,4.37,0,0,1,3.54-3c2.11-.52,10.42-2,14.15-2.59,2-.32,2.46-1,2.44-2.72s-.23-5.48-.32-7.35a13.32,13.32,0,0,1,1.19-5.56c2.95-6.91,10.19-21.49,16.47-30.18a1.94,1.94,0,0,1,2.15-1c.83.2,4.6,3.17,4.91,3.32.66.34,1.54,0,1.14-.37-2.2-2.2-8.85-6.25-12.9-9.48-8-6.39-16.38-15.68-23.11-21.89-3.47-3.19-7.19-5.55-10-6.16a27.78,27.78,0,0,0-2.76-.33.57.57,0,0,1-.48-.61,3.18,3.18,0,0,0-.82-2.25,4.42,4.42,0,0,0-3-1,20.6,20.6,0,0,0-4.86.6c-.62.17-.92,0-1.14-.22a4.68,4.68,0,0,1-.69-1.82,2.36,2.36,0,0,1,.39-1.54c.82-1.57,2.93-3.11,4.15-4.24a4.61,4.61,0,0,1,3.22-1.35,30.27,30.27,0,0,1,10.39.29,33,33,0,0,1,7.72,3.08c2.72,1.35,18.54,9.44,20.57,10.4Z"/><path class="cls-8" d="M124.86,34.87c.31,2-1,3.26-1.72,4.47s-2.3,3-3.09,4a3.21,3.21,0,0,1-2.93.89s9.11,4.63,14.35,7.26c2.08,1,5.34.08,7.55-4.07.51-1,3.79-7.89,4.61-10s2-4.35.12-8.28-7.7-11.17-10-13.95c-1.21-1.46-2.64-2.34-5.71-2.51a37.41,37.41,0,0,0-11.63,1.58,105.36,105.36,0,0,0-11.45,4c-.13.09-.11.21,0,.36s.72,1.27.72,1.27a3.1,3.1,0,0,0,1.28,1.31A8.41,8.41,0,0,0,109,22a.36.36,0,0,0,.44-.18c.08-.11,1-1.89,4.41-2.77a14.34,14.34,0,0,1,3.58-.52,5,5,0,0,1,3,1.21A10.28,10.28,0,0,1,123,24a2.29,2.29,0,0,1-.9,2.61,21.25,21.25,0,0,1-5.41,1.3,8.36,8.36,0,0,1-4.57-.5.34.34,0,0,0-.44,0,7.93,7.93,0,0,1-1.39,1c-.17.1-.28.32-.11.65S112.48,33,113.79,34s2,.54,3.55-.33,2.62-1.91,4.24-1.86A3.58,3.58,0,0,1,124.86,34.87Z"/><path class="cls-9" d="M122,27a22.19,22.19,0,0,1-5.31,1.2,8.74,8.74,0,0,1-4.47-.46.35.35,0,0,0-.43,0,7.74,7.74,0,0,1-1.36,1c-.17.09-.28.29-.11.59s2.1,3.58,3.43,4.52,2,.52,3.61-.32,2.67-1.88,4.31-1.83Z"/><path class="cls-10" d="M116.14,14.81a104.31,104.31,0,0,0-10.87,3.64c-.12.08-.1.34,0,.47s.68,1.16.68,1.16a2.83,2.83,0,0,0,1.22,1.19A8.94,8.94,0,0,0,109,22a.36.36,0,0,0,.44-.18c.08-.11,1-1.89,4.41-2.77a14.34,14.34,0,0,1,3.58-.52Z"/><path class="cls-11" d="M124.9,35.15c.31,2-1,3.39-1.73,4.61s-2.29,3-3.08,4a2.25,2.25,0,0,1-2.48.72s8.62,4.38,13.86,7c2.08,1,5.22.34,7.43-3.81.51-1,3.8-7.89,4.61-10Z"/><path class="cls-12" d="M82,67.58c-.4-.16-.41-.63.13-1.2a13.32,13.32,0,0,1,4.13-2.61c1.48-.33,6.66-.81,8.87-.94.62,0,8.63-.75,9.37-.71S107,65,109.19,67.35c-.25,0-7.23-.13-13.16-.12-5.59,0-10.53.17-12.35.32A5.22,5.22,0,0,1,82,67.58Z"/><path class="cls-13" d="M81.93,67.68l0-.1,0,.1a.54.54,0,0,1-.36-.51h0a1.41,1.41,0,0,1,.45-.86h0a13,13,0,0,1,4.19-2.64h0c1.49-.34,6.67-.82,8.88-.94h0c.6,0,8.27-.72,9.32-.72h.07a1.56,1.56,0,0,1,.81.53h0c.31.32.68.75,1.09,1.26h0c.82,1,1.81,2.31,2.89,3.48h0l.15.16-.23,0h-.12c-.91,0-6.86-.12-12.25-.12H96c-5.59,0-10.53.17-12.34.32h0c-.4,0-.86.09-1.24.09h0a1.37,1.37,0,0,1-.52-.07Zm.52-.14c.36,0,.82-.06,1.22-.1h0c1.82-.15,6.76-.31,12.36-.32h.79c5.17,0,10.88.12,12.12.13h0c-1.55-1.73-2.93-3.67-3.81-4.55h0a1.34,1.34,0,0,0-.67-.47h0c-1,0-8.7.68-9.31.71h0c-2.2.13-7.39.6-8.84.94h0a12.87,12.87,0,0,0-4.08,2.58h0a1.12,1.12,0,0,0-.39.71h0a.32.32,0,0,0,.22.31h0a1.29,1.29,0,0,0,.44.06Z"/><path class="cls-14" d="M197.4,130c-2.42-6.1-9.26-19.34-18.64-33.1C169.56,83.37,154,65,151.81,62s-2.93-6.35,1.46-7.74c2.87-.91,9.78-2.34,12.61-3.13s3-1.65,3.18-3.78c.24-2.3-.39-13.47-1.78-20.12A5.64,5.64,0,0,0,165,23.89a57.61,57.61,0,0,1-6.88-6.39,16.12,16.12,0,0,1-3.9-7.34,1.74,1.74,0,0,0-.54-.87,2.19,2.19,0,0,0-.61-.45C148.9,6.3,134.29,2.3,131.31,2c-2-.18-9.27.75-15.87,4.71-1.93,1.17-2,2.61-3.37,3.4s-4.44,1.49-7.7,2.95c-1.8.8-1.81.93-1.38,1.94.17.43,1.34,2.55,1.94,2.55a5.61,5.61,0,0,0,2-.57,93.51,93.51,0,0,1,12.49-3.95c5.68-1.22,11.78-1.32,13.95,1a93.71,93.71,0,0,1,10.84,14.71c1.73,3.36,1.55,5,.41,8.44a95.67,95.67,0,0,1-6.24,13.17c-1.18,1.72-2.61,2.67-6,1.27-3.67-1.51-17.19-8.45-20.13-9.93-2-1-10.35-5.24-16.68-8.41a31.44,31.44,0,0,0-6.36-2.56,31.16,31.16,0,0,0-12-.26c-1,.17-1.71,1.86-1.66,2.54.07.86,2.52.25,4.56.4,1.65.11,7.28.72,10.54,2,3.43,1.39,20.63,10.65,25,13,33.09,18,47.25,29.59,72.81,72.55,1.14,1.93,1.69,4.28-.11,4.82-2.62.76-13.53,2.84-16.82,3.92-2.78.91-3.15,1.13-3.55,2.5-.46,1.57-1.16,4.67-1,5.3.07.25-.15.58.41.58,3.07,0,14.08,0,22.55.82,1,.11,1.08.08,1.73-.9a33.1,33.1,0,0,1,5.6-5.92C198.08,131.51,197.54,130.39,197.4,130Z"/><path class="cls-15" d="M189.62,123.66c-.18-1.75-1.77-4.34-4.62-8.8s-6.46-10.61-11.25-17.39c-8.5-12-16.87-21.43-27.27-29.66a187.8,187.8,0,0,0-21.65-14.4C118.92,49.94,94,36.29,90.09,35.08a41.25,41.25,0,0,0-8.81-1.72,42.75,42.75,0,0,0-4.64,0c-1.43,0-.93-1.16-.73-1.62-.15.33-1,1.93.41,1.93a49.36,49.36,0,0,1,5,.1,42.22,42.22,0,0,1,9.41,2.13c3.47,1.35,19.76,11.07,24,13.42a224.94,224.94,0,0,1,31.39,21.1C160,81.52,171.9,94.45,186.88,120.68a5.28,5.28,0,0,1,.91,2.75,2.13,2.13,0,0,1-1.64,2.11c-2.58.78-13.15,3.16-16.28,4.24-2.66.94-3.16,1.53-3.54,2.76-.14.51-.59,3-1.11,3.67s-1.74.83-3,.83c-.8,0-1.2,0-1.12-.85s.61-3.28.91-4.66a4.49,4.49,0,0,1,2.13-3.18c1.26-.77,5.64-1.48,8.11-2.09s2.6-1.74,2.56-3.6c0,2-.69,2.45-3.16,3s-6.74,1.1-8.13,2a5.2,5.2,0,0,0-2.11,3.22c-.85,3.5-1.42,6.07-1.33,6.93s.39.87,1.24.78,3-.4,6.17-.52c.94,0,.88-1.15.87-2.41a9.7,9.7,0,0,1,.26-2.5,2.35,2.35,0,0,1,1.55-1.52c1.77-.55,11.6-3.2,16.59-4.69C188.91,126.34,189.82,125.65,189.62,123.66Z"/><path class="cls-16" d="M124.05,77.61a13.91,13.91,0,0,1,2.89,1.82l1.41,1c-6.62,8.27-16.43,22.55-19.59,28.59-1.64,3.14-1.6,4.44-1.56,7.35s.37,6.19.19,7.78-1.2,2.31-2.81,2.75-11.13,2-13.23,2.59a3.8,3.8,0,0,0-2.94,3.32c-.36,1.52-.48,2.51-.65,3.1s-.07,1.11-.69,1.16-2.06.17-2.74.27-.79-.06-.77-.8a48,48,0,0,1,1.19-5.81,4.24,4.24,0,0,1,3.6-3.51c2.38-.58,12.06-2.21,13.88-2.53,2.15-.4,2.67-1.3,2.57-3.37s-.42-5.15-.47-7a12.43,12.43,0,0,1,.66-5c.67-1.81,4.11-9.27,7-14.53a186.46,186.46,0,0,1,9.82-16.19C122.57,77.68,123.1,77.32,124.05,77.61Z"/><path class="cls-17" d="M118.45,130.76a7.72,7.72,0,0,1,1.64-4.85,68.15,68.15,0,0,1,6.5-7.13c4.85-5,16.69-16.63,17.12-17,.26-.27.59-.64-.07-1.27-1.17-1.13-1.79-1.86-3.64-3.71-1.13-1.13-1.91-1.81-1.87-2.21,0-.05-13.23,14.83-17.56,25.82-1.78,3.93-2.29,6.17-2.29,8.11A9.73,9.73,0,0,0,118.45,130.76Z"/><path class="cls-18" d="M76.49,33.62a41.22,41.22,0,0,1,5.17.13A40.32,40.32,0,0,1,91.07,36c1.26.52,4.25,2.15,7.74,4.12,6,3.42,13.61,7.88,16.29,9.38A234.11,234.11,0,0,1,139.19,65c2.54,1.88,5,3.82,7.37,5.76C160.44,82,171.84,94.41,187.07,121a4.66,4.66,0,0,1,.71,2.75,2.21,2.21,0,0,1-1.86,1.84Z"/><path class="cls-19" d="M167.17,21.15h-.07a2.1,2.1,0,0,1-1.21-.45c-2.19-1.63-8.34-6.41-9.23-10.47-.55-1.9.15-1-1.83-2l-1.62-.64.52.3a3.34,3.34,0,0,1,.78.57,2.82,2.82,0,0,1,.92,1.52,14.92,14.92,0,0,0,3.64,6.8A55.88,55.88,0,0,0,165.94,23a7.44,7.44,0,0,1,1.52,1.24,23,23,0,0,1,1.3-4.33,6.7,6.7,0,0,1-.38.6A1.6,1.6,0,0,1,167.17,21.15Z"/><path class="cls-20" d="M153.74,55.36c-2.05.74-2.31,1.39-2.37,2.41h0a6.82,6.82,0,0,0,1.35,3.7c1.06,1.52,6.22,7.38,12,14.6a21.92,21.92,0,0,0,1.49,1.68c-.21-.27-8.33-10.55-10.82-13.38A5.4,5.4,0,0,1,153.83,61a4.9,4.9,0,0,1,3.42-4.34c3.09-1.13,8.71-2.95,10-3.65s1.62-1,1.8-1.87a6.77,6.77,0,0,1-2.52,1.15C163.61,53.05,156.49,54.5,153.74,55.36Z"/><path class="cls-21" d="M168.87,21.69c1.11-3.89,4.65-8.49,10.27-8.49,7.16,0,10.14,2.7,11.14,6.73-1.29-5.71-6.29-7.49-11.16-7.38C173.63,12.68,169.94,17.34,168.87,21.69Z"/><path class="cls-22" d="M122.27,125.45c1-1,4.66-5.14,8.58-9.5-1.29,1.29-2.45,2.49-3.36,3.42-5.54,5.67-8,7.43-7.94,10.95.06,2.08.23,7.21.24,8a1.32,1.32,0,0,1-.83,1.47,3.8,3.8,0,0,1-1.56.23c-1.5,0-16.11-1.42-21.23-1.42A53.86,53.86,0,0,0,84,139.8a2.14,2.14,0,0,1-2-.63,2,2,0,0,1-.33-1c-.11,1-.21,2.17-.21,2.67a58.93,58.93,0,0,1,5.9-.69c3.59-.28,7.65-.23,10.36-.23s22.8,1,22.88,1c-.13-1.54-.33-5.22-.39-7.51,0-.6,0-.59-.07-2.23A8,8,0,0,1,122.27,125.45Z"/><path class="cls-23" d="M163.07,116.1a13.19,13.19,0,0,0,3.31,1.76c-.92-.64-2.28-1.67-4.06-3-2.59-2-5.9-4.61-9.22-7.25-2.81-2.23-5.63-4.48-8-6.41a1.77,1.77,0,0,1-.77,1.42,3,3,0,0,1,1.5.81C146.83,104.36,160.38,114.15,163.07,116.1Z"/><path class="cls-24" d="M199,133.37c.47-.37.65-.34.65-.7a5.36,5.36,0,0,0-.36-1.34c-2.74-7.83-13.16-27.15-21.26-37.9a6.32,6.32,0,0,1-1.29-3.35A3.35,3.35,0,0,1,178,87.42c.56-.47,1.94-1.64,3.74-3.43-2.8,2.1-4.76,3.77-5,4.52a3.83,3.83,0,0,0-.32,1.51,6.38,6.38,0,0,0,1.35,3.57c.65.91,1.28,1.82,1.88,2.69,9.41,13.85,16,27.25,18.45,33.51.55,1.51.44,2.26,0,2.94,0,0-4.91,5-5.49,6a4.72,4.72,0,0,1-.79,1,3,3,0,0,1-2,.43c-7.24-.68-15.1-1-19-1-5.13,0-8.12.49-9.82.53a2.59,2.59,0,0,1-1.68-.34.25.25,0,0,0,0-.07c-.08.72-.12,1.26-.14,1.5A72.72,72.72,0,0,1,171,140c1.48,0,3,0,4.55.06,7.64.24,16.52.94,16.54.94S196.37,135.55,199,133.37Z"/><path class="cls-25" d="M121.59,76.76c-2.3-1.61-4.73-3.26-6.94-4.61-2.9-1.82-5.67-3.07-6.49-3.05-8.84-.14-8.84-.14-14-.14-4.05,0-7.9.15-9.43.27a29,29,0,0,0-4.88.67,1.67,1.67,0,0,1-.5,0c.08.12.19.36.25.45a3.57,3.57,0,0,1,.43-.14c1.85-.53,6-.78,11.15-.8,4.92,0,10.3,0,13.08.17,2.49.12,6,.45,8.82,2C115.65,73.08,121.32,77,121.59,76.76Z"/><path class="cls-26" d="M94.92,51.11c-3.35-3.11-8.42-6.7-10.81-7.19a18.23,18.23,0,0,0-3-.33c-.74,0-.68-.9-.9-1.06,0,.15.07,1.44.52,1.47a9.47,9.47,0,0,1,4.11.57,61.92,61.92,0,0,1,8.84,6.25C94.79,52.07,95.88,52,94.92,51.11Z"/><path class="cls-27" d="M75.85,68a3,3,0,0,1,1.44.24c-.34-.58-.72-.84-1.79-.82-1.58,0-5.58,2-6.19,2.43-.93.51-1.34.53-1.92-.11.27.65.72,1,1.13.9S73.73,68,75.85,68Z"/><path class="cls-28" d="M122.36,7.17c.74-.11,1.36-.27,1.44.33a2.22,2.22,0,0,1-.11.95.76.76,0,0,1-.53.44c-.76.25-5.07,1.83-5.81,2.14a.67.67,0,0,1-1-.38,2.55,2.55,0,0,1,.25-1.59,1.22,1.22,0,0,1,.82-.65C117.8,8.29,121.27,7.35,122.36,7.17Z"/><path class="cls-2" d="M122.24,7.54c.48-.08.72,0,.75.23a2.11,2.11,0,0,1,0,.55c0,.14-.09.22-.33.31-.49.18-3.64,1.3-4.4,1.62s-1,.13-1.12-.16a1.74,1.74,0,0,1,.17-1,1,1,0,0,1,.57-.43C118.43,8.47,121.35,7.71,122.24,7.54Z"/><path class="cls-29" d="M139.86,48.69c.52-.95,4-8.33,4.85-10.46a11.31,11.31,0,0,0,1.15-4.35,10.93,10.93,0,0,0-1.07-4.41c-1.92-4-8-11.74-10.43-14.65-2.05-2.43-3.91-2.8-7.42-2.71-8.93.23-16.71,4-21.09,5.8,3.12-1.07,10.69-4.17,19.14-4.68,4.64-.28,6.5.11,8.2,2a99.22,99.22,0,0,1,10.26,14.36,7.64,7.64,0,0,1,1.06,4.13,13.21,13.21,0,0,1-1.32,4.31c-.88,2-4.18,8.72-4.74,9.69-2.4,4.15-4.69,4-7.13,3.44.12.07,1.24.6,2.27,1C136.43,53.36,138.23,51.74,139.86,48.69Z"/><path class="cls-30" d="M129.07,81c-.09,0-.52-.36-1.09-.78a154.64,154.64,0,0,0-11.57,15.74c-3.17,5-7.74,12.57-8.46,14.23a11.55,11.55,0,0,0-.9,4.7s.26,8.15.26,8.2a3.61,3.61,0,0,1-.68,2.46,3.93,3.93,0,0,1-2.52,1.11c-1.88.27-10.76,1.64-13.2,2.14s-3.35,1.59-3.87,3.16a16.43,16.43,0,0,0-.82,3.9,2.36,2.36,0,0,0,0,.46c-.07.9.26.85.26.85a157,157,0,0,1,16.39-.42c6.12.35,14.56,1.15,14.56,1.15s-8.88-1.66-14.93-2-14.06.3-14.13-.07a3.74,3.74,0,0,1-.14-1.37c.1-.48.23-1,.39-1.6a4.14,4.14,0,0,1,3.44-3.38c2.24-.57,10.87-2,12.51-2.39s2.66-1,2.89-2.33a18.53,18.53,0,0,0,.11-2.16c0-1.73-.31-6.33-.3-6.62a12,12,0,0,1,2-7.38c2.87-4.77,13.66-21.18,19-26.87.34-.36.49-.67,1.09-.57A1.61,1.61,0,0,1,129.07,81Z"/><path class="cls-31" d="M0,175v23.95H6.6v-7.37h5.9c12.67,0,19.13-4.06,19.13-8.56,0-4.82-6.93-8-18.55-8Zm6.6,14V177.66h5.18c5.36,0,12.44.91,12.44,5.35,0,3-2.3,6-13.29,6Z"/><path class="cls-31" d="M69.24,198.94v-3H53c-3.49,0-4.5-1.58-4.5-4.26v-3.51H67.56v-3H48.48V178H68.42v-3H41.89v16.82c0,4.5,1.86,7.13,7.93,7.13Z"/><path class="cls-31" d="M111.44,175h-6.59V195.2a23,23,0,0,1-7.79,1.2C92,196.4,87,195.11,87,190.66V175h-6.6v16.15c0,6.6,6.6,8.56,13.86,8.56a43.63,43.63,0,0,0,17.21-3.39Z"/><path class="cls-31" d="M129.78,187c0-6.64,5.65-9.76,12.53-9.76,5.64,0,10,1.63,14.11,3v-4a46.58,46.58,0,0,0-14.11-2c-11,0-20,5.06-20,12.76,0,8.13,9,12.67,20,12.67a63.64,63.64,0,0,0,14.83-2v-9.49h-6.51v7.1a20.36,20.36,0,0,1-7.84,1.43c-7.5,0-13-3.72-13-9.66"/><path class="cls-31" d="M196.5,198.94v-3H180.24c-3.48,0-4.49-1.58-4.49-4.26v-3.51h19.08v-3H175.75V178h19.94v-3H169.15v16.82c0,4.5,1.87,7.13,7.94,7.13Z"/><path class="cls-31" d="M225.12,174.27c-11,0-20.07,5.16-20.07,12.89,0,8.1,9,12.54,20.07,12.54s20-4.44,20-12.54c0-7.73-9-12.89-20-12.89m0,22.76c-7.5,0-12.57-3.88-12.57-9.87,0-6.58,5.64-9.89,12.57-9.89s12.53,3.31,12.53,9.89c0,6-5.07,9.87-12.53,9.87"/><polygon class="cls-31" points="250.57 178.42 263.72 178.42 263.72 198.94 270.32 198.94 270.32 178.42 283.46 178.42 283.46 174.99 250.57 174.99 250.57 178.42"/></g></g></g></svg>